<svg xmlns="http://www.w3.org/2000/svg" width="100" height="100" viewBox="0 0 100 100">
  <g id="img45" transform="translate(-383.746 -8400)">
    <circle id="Ellipse_13609" data-name="Ellipse 13609" cx="50" cy="50" r="50" transform="translate(383.746 8400)" fill="#beb1a1"/>
    <g id="Group_1182846" data-name="Group 1182846" transform="translate(407.3 8423.554)">
      <path id="Path_1011798" data-name="Path 1011798" d="M114.38,93.223h-2.44a14.829,14.829,0,0,0-1.074-2.594l1.725-1.724a.881.881,0,0,0,0-1.247L107.6,82.671a.881.881,0,0,0-1.247,0L104.633,84.4a14.924,14.924,0,0,0-2.594-1.073V80.882a.881.881,0,0,0-.882-.882H94.1a.881.881,0,0,0-.882.882v2.441A14.858,14.858,0,0,0,90.629,84.4L88.9,82.671a.881.881,0,0,0-1.247,0L82.67,87.658a.881.881,0,0,0,0,1.247L84.4,90.629a14.856,14.856,0,0,0-1.074,2.594h-2.44A.881.881,0,0,0,80,94.1v7.052a.881.881,0,0,0,.882.882h2.44a14.828,14.828,0,0,0,1.074,2.594l-1.725,1.724a.881.881,0,0,0,0,1.247l4.987,4.987a.881.881,0,0,0,1.247,0l1.725-1.724a14.925,14.925,0,0,0,2.594,1.073v2.441a.881.881,0,0,0,.882.882h7.052a.881.881,0,0,0,.882-.882v-2.441a14.858,14.858,0,0,0,2.594-1.073l1.725,1.724a.881.881,0,0,0,1.247,0l4.987-4.987a.881.881,0,0,0,0-1.247l-1.725-1.724a14.855,14.855,0,0,0,1.074-2.594h2.44a.881.881,0,0,0,.882-.882V94.1A.881.881,0,0,0,114.38,93.223Zm-.882,7.052h-2.225a.882.882,0,0,0-.854.661,13.155,13.155,0,0,1-1.407,3.4.88.88,0,0,0,.135,1.072l1.574,1.573-3.741,3.741-1.572-1.573a.885.885,0,0,0-1.071-.136,13.156,13.156,0,0,1-3.4,1.407.883.883,0,0,0-.662.854V113.5H94.986v-2.225a.884.884,0,0,0-.661-.854,13.156,13.156,0,0,1-3.4-1.407.882.882,0,0,0-1.071.136l-1.573,1.573-3.741-3.741,1.574-1.573a.881.881,0,0,0,.136-1.072,13.139,13.139,0,0,1-1.407-3.4.885.885,0,0,0-.855-.661H81.763V94.986h2.225a.882.882,0,0,0,.854-.661,13.155,13.155,0,0,1,1.407-3.4.881.881,0,0,0-.136-1.072l-1.574-1.573,3.741-3.741,1.572,1.573a.884.884,0,0,0,1.071.136,13.156,13.156,0,0,1,3.4-1.407.883.883,0,0,0,.663-.854V81.763h5.289v2.225a.884.884,0,0,0,.661.854,13.156,13.156,0,0,1,3.4,1.407.886.886,0,0,0,1.071-.136l1.573-1.573,3.741,3.741-1.574,1.573a.882.882,0,0,0-.135,1.072,13.124,13.124,0,0,1,1.407,3.4.883.883,0,0,0,.854.661H113.5Zm0,0" transform="translate(-71.185 -71.185)" fill="#593609"/>
      <path id="Path_1011799" data-name="Path 1011799" d="M154.579,144a10.579,10.579,0,1,0,10.579,10.579A10.59,10.59,0,0,0,154.579,144Zm0,19.394a8.815,8.815,0,1,1,8.815-8.815A8.825,8.825,0,0,1,154.579,163.394Zm0,0" transform="translate(-128.132 -128.132)" fill="#593609"/>
      <path id="Path_1011800" data-name="Path 1011800" d="M208.447,184.117a.883.883,0,0,0-.447.767v10.579a.881.881,0,0,0,1.336.755l8.815-5.289a.881.881,0,0,0,0-1.511l-8.815-5.289A.884.884,0,0,0,208.447,184.117Zm1.316,2.325,6.22,3.732-6.22,3.731Zm0,0" transform="translate(-185.08 -163.727)" fill="#593609"/>
      <path id="Path_1011801" data-name="Path 1011801" d="M419.526,0a3.526,3.526,0,1,0,3.526,3.526A3.53,3.53,0,0,0,419.526,0Zm0,5.289a1.763,1.763,0,1,1,1.763-1.763A1.765,1.765,0,0,1,419.526,5.289Zm0,0" transform="translate(-370.16)" fill="#593609"/>
      <path id="Path_1011802" data-name="Path 1011802" d="M3.526,0A3.526,3.526,0,1,0,7.052,3.526,3.53,3.53,0,0,0,3.526,0Zm0,5.289A1.763,1.763,0,1,1,5.289,3.526,1.765,1.765,0,0,1,3.526,5.289Zm0,0" fill="#593609"/>
      <path id="Path_1011803" data-name="Path 1011803" d="M419.526,416a3.526,3.526,0,1,0,3.526,3.526A3.53,3.53,0,0,0,419.526,416Zm0,5.289a1.763,1.763,0,1,1,1.763-1.763A1.765,1.765,0,0,1,419.526,421.289Zm0,0" transform="translate(-370.16 -370.16)" fill="#593609"/>
      <path id="Path_1011804" data-name="Path 1011804" d="M3.526,416a3.526,3.526,0,1,0,3.526,3.526A3.53,3.53,0,0,0,3.526,416Zm0,5.289a1.763,1.763,0,1,1,1.763-1.763A1.765,1.765,0,0,1,3.526,421.289Zm0,0" transform="translate(0 -370.16)" fill="#593609"/>
      <path id="Path_1011805" data-name="Path 1011805" d="M416,240h1.763v1.763H416Zm0,0" transform="translate(-370.16 -213.554)" fill="#593609"/>
      <path id="Path_1011806" data-name="Path 1011806" d="M448,240h1.763v1.763H448Zm0,0" transform="translate(-398.634 -213.554)" fill="#593609"/>
      <path id="Path_1011807" data-name="Path 1011807" d="M448,208h1.763v1.763H448Zm0,0" transform="translate(-398.634 -185.08)" fill="#593609"/>
      <path id="Path_1011808" data-name="Path 1011808" d="M448,176h1.763v1.763H448Zm0,0" transform="translate(-398.634 -156.606)" fill="#593609"/>
      <path id="Path_1011809" data-name="Path 1011809" d="M448,144h1.763v1.763H448Zm0,0" transform="translate(-398.634 -128.132)" fill="#593609"/>
      <path id="Path_1011810" data-name="Path 1011810" d="M448,112h1.763v1.763H448Zm0,0" transform="translate(-398.634 -99.658)" fill="#593609"/>
      <path id="Path_1011811" data-name="Path 1011811" d="M448,80h1.763v1.763H448Zm0,0" transform="translate(-398.634 -71.185)" fill="#593609"/>
      <path id="Path_1011812" data-name="Path 1011812" d="M80,16h1.763v1.763H80Zm0,0" transform="translate(-71.185 -14.237)" fill="#593609"/>
      <path id="Path_1011813" data-name="Path 1011813" d="M112,16h1.763v1.763H112Zm0,0" transform="translate(-99.658 -14.237)" fill="#593609"/>
      <path id="Path_1011814" data-name="Path 1011814" d="M144,16h1.763v1.763H144Zm0,0" transform="translate(-128.132 -14.237)" fill="#593609"/>
      <path id="Path_1011815" data-name="Path 1011815" d="M176,16h1.763v1.763H176Zm0,0" transform="translate(-156.606 -14.237)" fill="#593609"/>
      <path id="Path_1011816" data-name="Path 1011816" d="M208,16h1.763v1.763H208Zm0,0" transform="translate(-185.08 -14.237)" fill="#593609"/>
      <path id="Path_1011817" data-name="Path 1011817" d="M240,16h1.763v1.763H240Zm0,0" transform="translate(-213.554 -14.237)" fill="#593609"/>
      <path id="Path_1011818" data-name="Path 1011818" d="M240,48h1.763v1.763H240Zm0,0" transform="translate(-213.554 -42.711)" fill="#593609"/>
      <path id="Path_1011819" data-name="Path 1011819" d="M16,384h1.763v1.763H16Zm0,0" transform="translate(-14.237 -341.686)" fill="#593609"/>
      <path id="Path_1011820" data-name="Path 1011820" d="M16,352h1.763v1.763H16Zm0,0" transform="translate(-14.237 -313.212)" fill="#593609"/>
      <path id="Path_1011821" data-name="Path 1011821" d="M16,320h1.763v1.763H16Zm0,0" transform="translate(-14.237 -284.738)" fill="#593609"/>
      <path id="Path_1011822" data-name="Path 1011822" d="M16,288h1.763v1.763H16Zm0,0" transform="translate(-14.237 -256.264)" fill="#593609"/>
      <path id="Path_1011823" data-name="Path 1011823" d="M16,256h1.763v1.763H16Zm0,0" transform="translate(-14.237 -227.791)" fill="#593609"/>
      <path id="Path_1011824" data-name="Path 1011824" d="M16,224h1.763v1.763H16Zm0,0" transform="translate(-14.237 -199.317)" fill="#593609"/>
      <path id="Path_1011825" data-name="Path 1011825" d="M48,224h1.763v1.763H48Zm0,0" transform="translate(-42.711 -199.317)" fill="#593609"/>
      <path id="Path_1011826" data-name="Path 1011826" d="M224,416h1.763v1.763H224Zm0,0" transform="translate(-199.317 -370.16)" fill="#593609"/>
      <path id="Path_1011827" data-name="Path 1011827" d="M224,448h1.763v1.763H224Zm0,0" transform="translate(-199.317 -398.634)" fill="#593609"/>
      <path id="Path_1011828" data-name="Path 1011828" d="M256,448h1.763v1.763H256Zm0,0" transform="translate(-227.791 -398.634)" fill="#593609"/>
      <path id="Path_1011829" data-name="Path 1011829" d="M288,448h1.763v1.763H288Zm0,0" transform="translate(-256.264 -398.634)" fill="#593609"/>
      <path id="Path_1011830" data-name="Path 1011830" d="M320,448h1.763v1.763H320Zm0,0" transform="translate(-284.738 -398.634)" fill="#593609"/>
      <path id="Path_1011831" data-name="Path 1011831" d="M352,448h1.763v1.763H352Zm0,0" transform="translate(-313.212 -398.634)" fill="#593609"/>
      <path id="Path_1011832" data-name="Path 1011832" d="M384,448h1.763v1.763H384Zm0,0" transform="translate(-341.686 -398.634)" fill="#593609"/>
    </g>
  </g>
</svg>
