<svg xmlns="http://www.w3.org/2000/svg" width="110" height="110" viewBox="0 0 110 110">
  <g id="img39" transform="translate(-620.711 -10776)">
    <rect id="Rectangle_456039" data-name="Rectangle 456039" width="110" height="110" rx="5" transform="translate(620.711 10776)" fill="#ff9a1a"/>
    <g id="Group_1183282" data-name="Group 1183282" transform="translate(637.711 10793)">
      <g id="Group_1183280" data-name="Group 1183280" transform="translate(2.182 2.182)">
        <g id="Group_1183266" data-name="Group 1183266" transform="translate(11.821)">
          <path id="Path_1013057" data-name="Path 1013057" d="M64.013,4.364V22.1l-.047.047-8.228,8.228H49.828A5.922,5.922,0,0,0,45.1,32.735H28.55V61.106H54.556v4.728H23.821V30.371A11.825,11.825,0,0,0,12,18.55V14.8a2.326,2.326,0,0,1,.213-.981h9.244a2.371,2.371,0,0,0,2.364-2.364V2.213A2.326,2.326,0,0,1,24.8,2H61.649a2.371,2.371,0,0,1,2.364,2.364Z" transform="translate(-12 -2)" fill="#e6e9ed"/>
        </g>
        <g id="Group_1183267" data-name="Group 1183267" transform="translate(28.371 30.735)">
          <path id="Path_1013058" data-name="Path 1013058" d="M48.756,47.86a6.442,6.442,0,0,1-1.43-1.572,6.663,6.663,0,0,1-.946-2.01h-.012l-5,5-1.182.473L35.812,51.5a1.988,1.988,0,0,1-2.683-2.222,2.022,2.022,0,0,1,.106-.355l2.222-5.556,1.182-1.182,7.093-7.093a2.371,2.371,0,0,1-2.364-2.364V31.546A5.841,5.841,0,0,1,42.55,28H26V56.371H52.006V50.46Z" transform="translate(-26 -28)" fill="#ffeaa7"/>
        </g>
        <g id="Group_1183268" data-name="Group 1183268" transform="translate(28.371 4.728)">
          <path id="Path_1013059" data-name="Path 1013059" d="M26,6H56.735v4.728H26Z" transform="translate(-26 -6)" fill="#ff826e"/>
        </g>
        <g id="Group_1183269" data-name="Group 1183269" transform="translate(12.034 0.213)">
          <path id="Path_1013060" data-name="Path 1013060" d="M23.788,2.18v9.244a2.371,2.371,0,0,1-2.364,2.364H12.18a2.384,2.384,0,0,1,.485-.7L23.091,2.665A2.384,2.384,0,0,1,23.788,2.18Z" transform="translate(-12.18 -2.18)" fill="#b4dd7f"/>
        </g>
        <g id="Group_1183270" data-name="Group 1183270" transform="translate(37.828 35.463)">
          <path id="Path_1013061" data-name="Path 1013061" d="M44.639,32v9.6a6.712,6.712,0,0,0,.284,1.95h-.012l-5,5L34,42.639l1.182-1.182,7.093-7.093A2.381,2.381,0,0,0,44.639,32Z" transform="translate(-34 -32)" fill="#ff826e"/>
        </g>
        <g id="Group_1183271" data-name="Group 1183271" transform="translate(50.677 18.914)">
          <path id="Path_1013062" data-name="Path 1013062" d="M58.027,19.182A4.18,4.18,0,0,1,63.89,25.14l-6.9,6.9-9.6,9.6V35.732a3.538,3.538,0,0,0-1.04-2.506,3.615,3.615,0,0,0-1.478-.887l4.882-4.882,8.228-8.228Z" transform="translate(-44.87 -18)" fill="#ff826e"/>
        </g>
        <g id="Group_1183272" data-name="Group 1183272" transform="translate(35.463 46.102)">
          <path id="Path_1013063" data-name="Path 1013063" d="M40.275,46.911l-1.182.473-4.374,1.75a1.988,1.988,0,0,1-2.683-2.222,2.022,2.022,0,0,1,.106-.355L34.364,41Z" transform="translate(-32 -41)" fill="#aab2bd"/>
        </g>
        <g id="Group_1183273" data-name="Group 1183273" transform="translate(54.377 49.649)">
          <path id="Path_1013064" data-name="Path 1013064" d="M61,44l2.364,14.185H48V47.546Z" transform="translate(-48 -44)" fill="#b4dd7f"/>
        </g>
        <g id="Group_1183274" data-name="Group 1183274" transform="translate(43.738 28.371)">
          <path id="Path_1013065" data-name="Path 1013065" d="M43.031,34.759a2.311,2.311,0,0,1-1.667.7A2.371,2.371,0,0,1,39,33.093V31.911a5.841,5.841,0,0,1,1.182-3.546A5.922,5.922,0,0,1,44.911,26h5.911l-4.882,4.882a3.667,3.667,0,0,0-1.028-.154,1.186,1.186,0,0,0-1.182,1.182v1.182A2.311,2.311,0,0,1,43.031,34.759Z" transform="translate(-39 -26)" fill="#f0d0b4"/>
        </g>
        <g id="Group_1183275" data-name="Group 1183275" transform="translate(48.467 32.957)">
          <path id="Path_1013066" data-name="Path 1013066" d="M57.954,31.027a32.5,32.5,0,0,1,3.96,15.545l-13,3.546-3.251-2.6a6.442,6.442,0,0,1-1.43-1.572A7.122,7.122,0,0,1,43,41.985V31.2a1.186,1.186,0,0,1,1.182-1.182,3.667,3.667,0,0,1,1.028.154,3.615,3.615,0,0,1,1.478.887,3.538,3.538,0,0,1,1.04,2.506v5.911l9.6-9.6Z" transform="translate(-43 -29.88)" fill="#f0d0b4"/>
        </g>
        <g id="Group_1183276" data-name="Group 1183276" transform="translate(0 28.371)">
          <path id="Path_1013067" data-name="Path 1013067" d="M25.642,26V63.828a4.727,4.727,0,0,1-4.728,4.728H6.728A4.727,4.727,0,0,1,2,63.828V26a11.81,11.81,0,0,0,4.728,9.457v8.275a1.186,1.186,0,0,0,1.182,1.182H19.732a1.186,1.186,0,0,0,1.182-1.182V35.457A11.81,11.81,0,0,0,25.642,26Z" transform="translate(-2 -26)" fill="#969faa"/>
        </g>
        <g id="Group_1183277" data-name="Group 1183277" transform="translate(4.758 52.02)">
          <path id="Path_1013068" data-name="Path 1013068" d="M19.091,60.144H7.207a1.183,1.183,0,0,1-1.182-1.182V47.188a1.183,1.183,0,0,1,1.182-1.182H19.09a1.183,1.183,0,0,1,1.182,1.182V58.962A1.18,1.18,0,0,1,19.091,60.144Z" transform="translate(-6.025 -46.006)" fill="#ff826e"/>
        </g>
        <g id="Group_1183278" data-name="Group 1183278" transform="translate(4.728 37.828)">
          <path id="Path_1013069" data-name="Path 1013069" d="M20.185,34v8.275A1.186,1.186,0,0,1,19,43.457H7.182A1.186,1.186,0,0,1,6,42.275V34a11.821,11.821,0,0,0,14.185,0Z" transform="translate(-6 -34)" fill="#69d6f4"/>
        </g>
        <g id="Group_1183279" data-name="Group 1183279" transform="translate(0 16.55)">
          <path id="Path_1013070" data-name="Path 1013070" d="M25.642,27.821A11.821,11.821,0,1,1,13.821,16,11.81,11.81,0,0,1,25.642,27.821Z" transform="translate(-2 -16)" fill="#fcd770"/>
        </g>
      </g>
      <g id="Group_1183281" data-name="Group 1183281" transform="translate(1 1)">
        <path id="Path_1013071" data-name="Path 1013071" d="M66.638,35.726l-.2-.374,6.286-6.286A5.339,5.339,0,0,0,67.2,20.221V4.546A3.551,3.551,0,0,0,63.652,1H26.8A3.525,3.525,0,0,0,24.3,2.039L13.86,12.475a3.521,3.521,0,0,0-1.039,2.508V17.61A13.016,13.016,0,0,0,1,30.553V68.38a5.917,5.917,0,0,0,5.911,5.911H21.1a5.917,5.917,0,0,0,5.911-5.911V67.2H73.323l-2.582-15.49A33.738,33.738,0,0,0,66.638,35.726Zm1.714,15.21L56.828,54.079l-2.779-2.224a5.887,5.887,0,0,1-2.218-4.616V36.463A2.367,2.367,0,0,1,54.2,38.828V47.1h2.364V45.228L64.685,37.1A31.343,31.343,0,0,1,68.352,50.936ZM51.831,34.1a2.367,2.367,0,0,0-2.364,2.364v1.182a1.182,1.182,0,1,1-2.364,0V36.463a4.733,4.733,0,0,1,4.728-4.728h3.057L52.46,34.163a4.607,4.607,0,0,0-.629-.064ZM38.886,54.28l1.556-3.892,3.375,3.375L39.923,55.32a.819.819,0,0,1-1.1-.744A.772.772,0,0,1,38.886,54.28Zm7.035-1.757-4.239-4.239,7.148-7.148a3.45,3.45,0,0,0,.637-.163v6.265a8.315,8.315,0,0,0,.161,1.577Zm-.965-13.7H31.735V34.1H45.152a7.064,7.064,0,0,0-.414,2.364v1.182A3.506,3.506,0,0,0,44.956,38.828ZM31.735,41.192h13.7L40.7,45.92H31.735Zm0,7.093h7l-1.891,4.728h-5.11Zm0,7.093h4.844A3.153,3.153,0,0,0,40.8,57.516l2.752-1.1v3.692H31.735Zm14.185.091.664-.266,3.936-3.936c.043.077.082.155.128.231v8.609H45.92Zm7.093-1.415,2.364,1.891v4.161H53.013ZM71.927,25.276a2.979,2.979,0,0,1-.878,2.12L56.559,41.885V38.828a4.7,4.7,0,0,0-1.766-3.655L66.809,23.156a3,3,0,0,1,5.117,2.12ZM24.642,5.036v6.6a1.184,1.184,0,0,1-1.182,1.182h-6.6ZM14,19.914A10.639,10.639,0,1,1,3.364,30.553,10.652,10.652,0,0,1,14,19.914ZM8.093,42.121a12.889,12.889,0,0,0,11.821,0v6.164H8.093Zm13,29.806H6.911A3.551,3.551,0,0,1,3.364,68.38V38.006a13.124,13.124,0,0,0,2.364,2.57v7.709a2.367,2.367,0,0,0,2.364,2.364H19.914a2.367,2.367,0,0,0,2.364-2.364V40.576a13.124,13.124,0,0,0,2.364-2.57V68.38A3.551,3.551,0,0,1,21.1,71.927Zm5.911-7.093V30.553A13.016,13.016,0,0,0,15.185,17.61V15.185H23.46a3.551,3.551,0,0,0,3.546-3.546V3.364H63.652a1.184,1.184,0,0,1,1.182,1.182V21.789l-7.582,7.582H51.831a7.073,7.073,0,0,0-5.272,2.364H29.371V62.47H55.377v2.364Zm30.735,0V56.28l10.87-2.965,1.92,11.519Z" transform="translate(-1 -1)"/>
        <path id="Path_1013072" data-name="Path 1013072" d="M11.364,33.014V35.55h2.364V33.014a3.361,3.361,0,0,0,.5-6.22l-2.305-1.151a1.01,1.01,0,0,1,.452-1.914h.345a1.011,1.011,0,0,1,1.01,1.01v1.355h2.364V24.738a3.368,3.368,0,0,0-2.364-3.2V19H11.364v2.536a3.361,3.361,0,0,0-.5,6.22l2.305,1.151a1.01,1.01,0,0,1-.452,1.914h-.345a1.011,1.011,0,0,1-1.01-1.01V28.457H9v1.355A3.368,3.368,0,0,0,11.364,33.014Z" transform="translate(0.457 2.278)"/>
        <path id="Path_1013073" data-name="Path 1013073" d="M19.185,45H7.364A2.367,2.367,0,0,0,5,47.364V59.185A2.367,2.367,0,0,0,7.364,61.55H19.185a2.367,2.367,0,0,0,2.364-2.364V47.364A2.367,2.367,0,0,0,19.185,45Zm0,4.728H16.821V47.364h2.364Zm-4.728,9.457H12.093V56.821h2.364Zm0-4.728H12.093V52.093h2.364Zm-4.728,0H7.364V52.093H9.728Zm2.364-4.728V47.364h2.364v2.364ZM9.728,47.364v2.364H7.364V47.364ZM7.364,56.821H9.728v2.364H7.364Zm9.457,2.364V52.093h2.365v7.093Z" transform="translate(-0.272 7.013)"/>
        <path id="Path_1013074" data-name="Path 1013074" d="M58.1,5H25v7.093H58.1ZM55.735,9.728H27.364V7.364H55.735Z" transform="translate(3.371 -0.272)"/>
        <path id="Path_1013075" data-name="Path 1013075" d="M25,13H58.1v2.364H25Z" transform="translate(3.371 1.185)"/>
        <path id="Path_1013076" data-name="Path 1013076" d="M25,17H58.1v2.364H25Z" transform="translate(3.371 1.914)"/>
        <path id="Path_1013077" data-name="Path 1013077" d="M25,21H43.914v2.364H25Z" transform="translate(3.371 2.642)"/>
      </g>
    </g>
  </g>
</svg>
